<?xml version="1.0" encoding="utf-8"?>
<!-- Generator: Adobe Illustrator 16.0.0, SVG Export Plug-In . SVG Version: 6.00 Build 0)  -->
<!DOCTYPE svg PUBLIC "-//W3C//DTD SVG 1.1//EN" "http://www.w3.org/Graphics/SVG/1.1/DTD/svg11.dtd">
<svg version="1.1" id="Capa_1" xmlns="http://www.w3.org/2000/svg" xmlns:xlink="http://www.w3.org/1999/xlink" x="0px" y="0px"
	 width="300px" height="150px" viewBox="0 0 300 150" enable-background="new 0 0 300 150" xml:space="preserve">
<g>
	<path fill="#002C55" d="M5,34v90h91V33.55V34H5z M38,81.038c0,6.874-4.074,11.144-10.93,11.144c-6.838,0-11.07-4.374-11.07-11.144
		V66h6v15.038c0,3.478,1.948,5.813,5.088,5.813c3.081,0,4.912-2.282,4.912-5.813V66h6V81.038z M53.494,92.182
		c-7.318,0-12.837-5.721-12.837-13.305c0-7.458,5.609-13.082,13.05-13.082c3.568,0,7.305,1.642,9.776,4.292l-3.478,4.361
		c-1.639-2.052-4.002-3.322-6.194-3.322c-3.975,0-6.973,3.3-6.973,7.677c0,4.439,2.998,7.788,6.973,7.788
		c2.073,0,4.435-1.147,6.192-3.002l3.511,3.931C60.832,90.397,57.001,92.182,53.494,92.182z M76.568,92.182
		c-7.319,0-12.839-5.721-12.839-13.305c0-7.458,5.611-13.082,13.05-13.082c3.569,0,7.306,1.642,9.777,4.292l-3.479,4.361
		c-1.639-2.052-4.001-3.322-6.193-3.322c-3.975,0-6.973,3.3-6.973,7.677c0,4.439,2.998,7.788,6.973,7.788
		c2.073,0,4.435-1.147,6.192-3.002l3.511,3.931C83.906,90.397,80.076,92.182,76.568,92.182z"/>
</g>
<g>
	<path fill="#002C55" d="M117.888,115.44h1.667v6.134c0,0.885-0.229,1.59-0.688,2.114c-0.459,0.524-1.049,0.786-1.77,0.786
		c-0.813,0-1.453-0.233-1.921-0.698c-0.469-0.464-0.695-1.144-0.679-2.037l0.017-0.037h1.614c0,0.486,0.089,0.845,0.269,1.077
		c0.179,0.233,0.412,0.35,0.701,0.35c0.232,0,0.422-0.14,0.57-0.416c0.148-0.278,0.222-0.656,0.222-1.139V115.44z"/>
	<path fill="#002C55" d="M127.552,120.413h-2.63V123h3.151v1.346h-4.817v-8.905h4.805v1.351h-3.139v2.275h2.63V120.413z"/>
	<path fill="#002C55" d="M135.308,122.033c0-0.354-0.088-0.635-0.263-0.841c-0.176-0.206-0.49-0.408-0.943-0.603
		c-0.883-0.322-1.546-0.687-1.991-1.096c-0.446-0.407-0.669-0.978-0.669-1.712c0-0.729,0.254-1.324,0.763-1.782
		c0.508-0.46,1.156-0.689,1.944-0.689c0.835,0,1.507,0.246,2.016,0.735c0.508,0.489,0.754,1.145,0.74,1.968l-0.013,0.038h-1.619
		c0-0.461-0.099-0.811-0.299-1.049c-0.199-0.239-0.483-0.358-0.854-0.358c-0.319,0-0.568,0.109-0.745,0.328
		c-0.177,0.218-0.266,0.489-0.266,0.815c0,0.302,0.1,0.551,0.301,0.747c0.201,0.194,0.545,0.409,1.034,0.642
		c0.832,0.285,1.461,0.646,1.889,1.083c0.428,0.438,0.642,1.023,0.642,1.761c0,0.764-0.251,1.363-0.75,1.8
		c-0.502,0.436-1.165,0.654-1.993,0.654c-0.816,0-1.513-0.235-2.091-0.706c-0.58-0.473-0.859-1.188-0.84-2.151l0.012-0.037h1.626
		c0,0.56,0.109,0.962,0.329,1.206c0.217,0.245,0.539,0.366,0.965,0.366c0.359,0,0.628-0.102,0.808-0.306
		C135.217,122.643,135.308,122.372,135.308,122.033z"/>
	<path fill="#002C55" d="M146.444,115.44v5.815c0,1.013-0.28,1.801-0.842,2.367c-0.562,0.567-1.293,0.852-2.196,0.852
		c-0.898,0-1.628-0.285-2.187-0.854c-0.559-0.569-0.839-1.357-0.839-2.365v-5.815h1.661v5.815c0,0.608,0.121,1.072,0.367,1.392
		c0.244,0.32,0.577,0.481,0.999,0.481c0.429,0,0.766-0.159,1.008-0.479c0.243-0.316,0.364-0.781,0.364-1.395v-5.815H146.444z"/>
	<path fill="#002C55" d="M151.822,124.346h-1.661v-8.905h1.661V124.346z"/>
	<path fill="#002C55" d="M160.854,116.791h-2.021v7.555h-1.673v-7.555h-1.969v-1.351h5.663V116.791z"/>
	<path fill="#002C55" d="M167.244,122.419h-2.151l-0.485,1.927h-1.737l2.44-8.905h1.727l2.44,8.905h-1.743L167.244,122.419z
		 M165.436,121.062h1.466l-0.716-2.827h-0.035L165.436,121.062z"/>
	<path fill="#002C55" d="M176.365,122.033c0-0.354-0.088-0.635-0.263-0.841c-0.176-0.206-0.489-0.408-0.942-0.603
		c-0.883-0.322-1.547-0.687-1.992-1.096c-0.446-0.407-0.668-0.978-0.668-1.712c0-0.729,0.254-1.324,0.763-1.782
		c0.509-0.46,1.156-0.689,1.944-0.689c0.835,0,1.507,0.246,2.016,0.735s0.754,1.145,0.739,1.968l-0.013,0.038h-1.619
		c0-0.461-0.1-0.811-0.299-1.049c-0.198-0.239-0.483-0.358-0.854-0.358c-0.319,0-0.567,0.109-0.745,0.328
		c-0.177,0.218-0.266,0.489-0.266,0.815c0,0.302,0.102,0.551,0.301,0.747c0.201,0.194,0.546,0.409,1.035,0.642
		c0.831,0.285,1.461,0.646,1.888,1.083c0.429,0.438,0.643,1.023,0.643,1.761c0,0.764-0.251,1.363-0.751,1.8
		c-0.5,0.436-1.165,0.654-1.993,0.654c-0.814,0-1.512-0.235-2.091-0.706c-0.58-0.473-0.859-1.188-0.841-2.151l0.014-0.037h1.625
		c0,0.56,0.108,0.962,0.327,1.206c0.22,0.245,0.541,0.366,0.966,0.366c0.359,0,0.628-0.102,0.809-0.306
		C176.276,122.643,176.365,122.372,176.365,122.033z"/>
</g>
<g>
	<path fill="#002C55" d="M129.998,44.125c0,4.825-3.049,7.878-7.905,7.878c-4.882,0-8.003-3.053-8.003-7.878V33.532h4.41v10.593
		c0,2.477,1.512,3.991,3.618,3.991c2.082,0,3.495-1.514,3.495-3.991V33.532h4.386V44.125z"/>
	<path fill="#002C55" d="M145.785,51.794l-7.979-11.245v11.245h-4.138V33.532h3.891l8.004,11.27v-11.27h4.113v18.263H145.785z"/>
	<path fill="#002C55" d="M153.643,51.794V33.532h4.411v18.263H153.643z"/>
	<path fill="#002C55" d="M167.001,51.794l-6.741-18.263h4.709l4.437,13.435l4.436-13.435h4.535l-6.814,18.263H167.001z"/>
	<path fill="#002C55" d="M184.994,37.184v3.627h8.275v3.653h-8.275v3.678h9.441v3.653h-13.853V33.532h13.58v3.652H184.994z"/>
	<path fill="#002C55" d="M205.663,46.655h-0.123h-3.348v5.139h-4.409V33.532h7.757c4.582,0,7.21,2.296,7.21,6.366
		c0,2.792-1.115,4.8-3.147,5.87l3.643,6.027h-5.006L205.663,46.655z M205.54,43.001c1.908,0,3.022-1.017,3.022-2.947
		c0-1.906-1.114-2.871-3.022-2.871h-3.348v5.817H205.54z"/>
	<path fill="#002C55" d="M229.729,35.358l-1.661,3.626c-1.834-1.122-4.139-1.904-5.551-1.904c-1.14,0-1.908,0.444-1.908,1.33
		c0,3.158,9.17,1.357,9.17,7.958c0,3.651-3.074,5.583-6.939,5.583c-2.898,0-5.874-1.147-7.93-2.922l1.708-3.574
		c1.786,1.644,4.462,2.74,6.271,2.74c1.388,0,2.255-0.548,2.255-1.592c0-3.235-9.169-1.304-9.169-7.774
		c0-3.366,2.752-5.505,6.914-5.505C225.391,33.322,227.944,34.131,229.729,35.358z"/>
	<path fill="#002C55" d="M232.679,51.794V33.532h4.41v18.263H232.679z"/>
	<path fill="#002C55" d="M248.514,33.532c5.454,0,9.219,3.705,9.219,9.13c0,5.402-3.815,9.132-9.393,9.132h-7.285V33.532H248.514z
		 M245.465,48.091h3.148c2.702,0,4.633-2.192,4.633-5.402c0-3.235-2.03-5.452-4.831-5.452h-2.95V48.091z"/>
	<path fill="#002C55" d="M263.746,48.429l-1.264,3.366h-4.535l7.483-18.263h4.535l7.312,18.263h-4.709l-1.239-3.366H263.746z
		 M267.563,38.148l-2.526,6.758h5.004L267.563,38.148z"/>
	<path fill="#002C55" d="M286.642,33.532c5.452,0,9.219,3.705,9.219,9.13c0,5.402-3.814,9.132-9.392,9.132h-7.285V33.532H286.642z
		 M283.595,48.091h3.147c2.699,0,4.633-2.192,4.633-5.402c0-3.235-2.03-5.452-4.832-5.452h-2.948V48.091z"/>
	<path fill="#002C55" d="M129.501,62.997l-2.553,3.182c-1.14-1.46-2.825-2.374-4.36-2.374c-2.751,0-4.832,2.295-4.832,5.296
		c0,3.053,2.081,5.375,4.832,5.375c1.462,0,3.146-0.834,4.36-2.14l2.579,2.871c-1.86,2.007-4.61,3.34-7.163,3.34
		c-5.228,0-9.119-4.045-9.119-9.393c0-5.271,3.989-9.236,9.268-9.236C125.091,59.917,127.767,61.117,129.501,62.997z"/>
	<path fill="#002C55" d="M135.798,74.971l-1.263,3.367H130l7.483-18.264h4.534l7.31,18.264h-4.708l-1.238-3.367H135.798z
		 M139.614,64.691l-2.528,6.759h5.006L139.614,64.691z"/>
	<path fill="#002C55" d="M157.608,63.805v14.533h-4.412V63.805h-5.178v-3.758h14.818v3.758H157.608z"/>
	<path fill="#002C55" d="M181.942,69.178c0,5.323-4.013,9.369-9.391,9.369c-5.353,0-9.366-4.02-9.366-9.369
		c0-5.322,4.014-9.261,9.366-9.261C177.93,59.917,181.942,63.882,181.942,69.178z M167.695,69.206c0,3.079,2.254,5.453,4.906,5.453
		c2.676,0,4.807-2.374,4.807-5.453s-2.131-5.401-4.807-5.401S167.695,66.127,167.695,69.206z"/>
	<path fill="#002C55" d="M196.541,74.451v3.887h-11.77V60.074h4.411v14.377H196.541z"/>
	<path fill="#002C55" d="M199.146,78.338V60.074h4.412v18.264H199.146z"/>
	<path fill="#002C55" d="M222.64,62.997l-2.554,3.182c-1.139-1.46-2.824-2.374-4.36-2.374c-2.751,0-4.831,2.295-4.831,5.296
		c0,3.053,2.08,5.375,4.831,5.375c1.462,0,3.147-0.834,4.36-2.14l2.578,2.871c-1.858,2.007-4.609,3.34-7.16,3.34
		c-5.229,0-9.121-4.045-9.121-9.393c0-5.271,3.99-9.236,9.269-9.236C218.228,59.917,220.904,61.117,222.64,62.997z"/>
	<path fill="#002C55" d="M228.935,74.971l-1.262,3.367h-4.535l7.483-18.264h4.535l7.31,18.264h-4.709l-1.237-3.367H228.935z
		 M232.752,64.691l-2.528,6.759h5.007L232.752,64.691z"/>
	<path fill="#002C55" d="M121.383,87.07c5.055,0,8.919,3.94,8.919,9.131c0,5.194-3.89,9.133-8.994,9.133h-6.939V87.07H121.383z
		 M116.352,103.353h5.056c3.864,0,6.888-3.053,6.888-7.124c0-4.097-3.073-7.148-6.962-7.148h-4.981V103.353z"/>
	<path fill="#002C55" d="M136.401,89.08v6.001h8.748v2.009h-8.748v6.263h10.11v1.981h-12.092V87.07h11.77v2.01H136.401z"/>
	<path fill="#002C55" d="M172.088,89.68l-1.188,1.592c-1.339-1.436-3.223-2.296-5.13-2.296c-3.916,0-7.063,3.184-7.063,7.2
		c0,3.992,3.147,7.201,7.063,7.201c1.907,0,3.768-0.834,5.13-2.191l1.213,1.436c-1.71,1.696-4.038,2.816-6.442,2.816
		c-5.006,0-8.97-4.096-8.97-9.262c0-5.112,4.014-9.156,9.044-9.156C168.123,87.02,170.428,88.035,172.088,89.68z"/>
	<path fill="#002C55" d="M192.286,96.201c0,5.141-4.014,9.236-9.068,9.236c-5.081,0-9.097-4.096-9.097-9.236
		c0-5.165,4.016-9.182,9.097-9.182C188.272,87.02,192.286,91.063,192.286,96.201z M176.129,96.201c0,4.02,3.222,7.229,7.089,7.229
		c3.864,0,7.036-3.209,7.036-7.229c0-4.017-3.172-7.2-7.036-7.2C179.351,89.001,176.129,92.185,176.129,96.201z"/>
	<path fill="#002C55" d="M204.16,99.516c-0.372,0.027-0.77,0.053-1.166,0.053h-4.608v5.766h-1.983V87.07h6.592
		c4.337,0,6.84,2.244,6.84,6.132c0,3.026-1.388,5.062-3.892,5.922l4.064,6.21h-2.256L204.16,99.516z M202.994,97.56
		c3.147,0,4.932-1.462,4.932-4.305c0-2.766-1.784-4.175-4.932-4.175h-4.608v8.479H202.994z"/>
	<path fill="#002C55" d="M221.831,87.07c5.055,0,8.921,3.94,8.921,9.131c0,5.194-3.892,9.133-8.996,9.133h-6.938V87.07H221.831z
		 M216.8,103.353h5.056c3.865,0,6.889-3.053,6.889-7.124c0-4.097-3.074-7.148-6.964-7.148h-4.98V103.353z"/>
	<path fill="#002C55" d="M250.974,96.201c0,5.141-4.014,9.236-9.068,9.236c-5.08,0-9.096-4.096-9.096-9.236
		c0-5.165,4.016-9.182,9.096-9.182C246.96,87.02,250.974,91.063,250.974,96.201z M234.817,96.201c0,4.02,3.223,7.229,7.088,7.229
		s7.037-3.209,7.037-7.229c0-4.017-3.172-7.2-7.037-7.2S234.817,92.185,234.817,96.201z"/>
	<path fill="#002C55" d="M262.401,87.07c3.493,0,5.599,1.695,5.599,4.566c0,2.141-1.162,3.68-3.195,4.122
		c2.502,0.391,3.965,2.112,3.965,4.618c0,3.104-2.329,4.957-6.244,4.957h-7.436V87.07H262.401z M257.072,94.95h5.23
		c2.328,0,3.691-1.069,3.691-2.974c0-1.854-1.363-2.896-3.691-2.896h-5.23V94.95z M257.072,103.353h5.23
		c2.825,0,4.459-1.175,4.459-3.263c0-1.983-1.634-3.156-4.459-3.156h-5.23V103.353z"/>
	<path fill="#002C55" d="M274.845,100.716l-1.936,4.618h-2.104l7.779-18.264h2.058l7.756,18.264h-2.155l-1.933-4.618H274.845z
		 M279.551,89.445l-3.866,9.261h7.782L279.551,89.445z"/>
	<polygon fill="#002C55" points="173.203,58.514 169.852,58.514 173.238,55.322 177.345,56.239 	"/>
	<polygon fill="#002C55" points="183.464,85.27 180.806,85.27 183.793,82.466 187.053,83.266 	"/>
</g>
</svg>
